# xmcd
#
# Track frame offsets:
#	150
#	21078
#	39802
#	60241
#	79206
#	94118
#	116220
#	130748
#	147524
#	161356
#	185187
#	215109
#
# Disc length: 3147 seconds
#
# Revision: 0
# Processed by: cddbd v1.5.1PL0 Copyright (c) Steve Scherf et al.
# Submitted via: dBpowerAMP V4.0
#
DISCID=a60c490c
DTITLE=Gregg Bartlett - Living In Mexico
DYEAR=2003
DGENRE=Alt. Country
TTITLE0=Crying Alone
TTITLE1=I'm From Texas
TTITLE2=Advice From A Child
TTITLE3=Living In Mexico
TTITLE4=Writing On The Wall
TTITLE5=Over Me
TTITLE6=Complicate Your Life
TTITLE7=Only Lonely People
TTITLE8=The Thrill
TTITLE9=Scissors To Stone
TTITLE10=Seagulls In The Sky
TTITLE11=Backseat Of My Car
EXTD=
EXTT0=
EXTT1=
EXTT2=
EXTT3=
EXTT4=
EXTT5=
EXTT6=
EXTT7=
EXTT8=
EXTT9=
EXTT10=
EXTT11=
PLAYORDER=
